<mxfile host="app.diagrams.net" modified="2022-09-03T23:10:36.671Z" agent="5.0 (Windows NT 10.0; Win64; x64) AppleWebKit/537.36 (KHTML, like Gecko) Chrome/104.0.0.0 Safari/537.36" etag="eOATM1U_YhoS2LRWa22B" version="20.2.8" type="github">
  <diagram id="7Ko4QGbpd6AjH1GhGkSV" name="Página-1">
    <mxGraphModel dx="1695" dy="442" grid="1" gridSize="10" guides="1" tooltips="1" connect="1" arrows="1" fold="1" page="1" pageScale="1" pageWidth="827" pageHeight="1169" math="0" shadow="0">
      <root>
        <mxCell id="0" />
        <mxCell id="1" parent="0" />
        <mxCell id="4r2hvdrGXI0uw6loOx7I-49" style="edgeStyle=orthogonalEdgeStyle;rounded=0;orthogonalLoop=1;jettySize=auto;html=1;exitX=1;exitY=0.5;exitDx=0;exitDy=0;entryX=0;entryY=0.5;entryDx=0;entryDy=0;endArrow=none;endFill=0;" parent="1" source="4r2hvdrGXI0uw6loOx7I-1" target="4r2hvdrGXI0uw6loOx7I-47" edge="1">
          <mxGeometry relative="1" as="geometry" />
        </mxCell>
        <mxCell id="4r2hvdrGXI0uw6loOx7I-107" style="edgeStyle=orthogonalEdgeStyle;rounded=0;orthogonalLoop=1;jettySize=auto;html=1;exitX=0.75;exitY=1;exitDx=0;exitDy=0;entryX=0.5;entryY=0;entryDx=0;entryDy=0;endArrow=none;endFill=0;" parent="1" source="4r2hvdrGXI0uw6loOx7I-1" target="4r2hvdrGXI0uw6loOx7I-106" edge="1">
          <mxGeometry relative="1" as="geometry">
            <Array as="points">
              <mxPoint x="250" y="140" />
              <mxPoint x="250" y="278" />
              <mxPoint x="298" y="278" />
            </Array>
          </mxGeometry>
        </mxCell>
        <mxCell id="4r2hvdrGXI0uw6loOx7I-1" value="Médicos" style="rounded=1;arcSize=10;whiteSpace=wrap;html=1;align=center;" parent="1" vertex="1">
          <mxGeometry x="130" y="100" width="100" height="40" as="geometry" />
        </mxCell>
        <mxCell id="4r2hvdrGXI0uw6loOx7I-11" style="edgeStyle=orthogonalEdgeStyle;rounded=0;orthogonalLoop=1;jettySize=auto;html=1;exitX=1;exitY=0.5;exitDx=0;exitDy=0;entryX=0.5;entryY=0;entryDx=0;entryDy=0;endArrow=none;endFill=0;" parent="1" source="4r2hvdrGXI0uw6loOx7I-3" target="4r2hvdrGXI0uw6loOx7I-1" edge="1">
          <mxGeometry relative="1" as="geometry" />
        </mxCell>
        <mxCell id="4r2hvdrGXI0uw6loOx7I-3" value="&lt;b&gt;CRM&lt;/b&gt;" style="ellipse;whiteSpace=wrap;html=1;align=center;" parent="1" vertex="1">
          <mxGeometry y="20" width="100" height="40" as="geometry" />
        </mxCell>
        <mxCell id="4r2hvdrGXI0uw6loOx7I-12" style="edgeStyle=orthogonalEdgeStyle;rounded=0;orthogonalLoop=1;jettySize=auto;html=1;exitX=1;exitY=0.5;exitDx=0;exitDy=0;entryX=0.25;entryY=0;entryDx=0;entryDy=0;endArrow=none;endFill=0;" parent="1" source="4r2hvdrGXI0uw6loOx7I-4" target="4r2hvdrGXI0uw6loOx7I-1" edge="1">
          <mxGeometry relative="1" as="geometry" />
        </mxCell>
        <mxCell id="4r2hvdrGXI0uw6loOx7I-4" value="Nome" style="ellipse;whiteSpace=wrap;html=1;align=center;" parent="1" vertex="1">
          <mxGeometry y="60" width="100" height="40" as="geometry" />
        </mxCell>
        <mxCell id="4r2hvdrGXI0uw6loOx7I-16" style="edgeStyle=orthogonalEdgeStyle;rounded=0;orthogonalLoop=1;jettySize=auto;html=1;exitX=1;exitY=0.5;exitDx=0;exitDy=0;entryX=0;entryY=0.5;entryDx=0;entryDy=0;endArrow=none;endFill=0;" parent="1" source="4r2hvdrGXI0uw6loOx7I-5" target="4r2hvdrGXI0uw6loOx7I-1" edge="1">
          <mxGeometry relative="1" as="geometry" />
        </mxCell>
        <mxCell id="4r2hvdrGXI0uw6loOx7I-5" value="CPF" style="ellipse;whiteSpace=wrap;html=1;align=center;" parent="1" vertex="1">
          <mxGeometry y="100" width="100" height="40" as="geometry" />
        </mxCell>
        <mxCell id="4r2hvdrGXI0uw6loOx7I-13" style="edgeStyle=orthogonalEdgeStyle;rounded=0;orthogonalLoop=1;jettySize=auto;html=1;exitX=1;exitY=0.5;exitDx=0;exitDy=0;entryX=0.5;entryY=1;entryDx=0;entryDy=0;endArrow=none;endFill=0;" parent="1" source="4r2hvdrGXI0uw6loOx7I-6" target="4r2hvdrGXI0uw6loOx7I-1" edge="1">
          <mxGeometry relative="1" as="geometry" />
        </mxCell>
        <mxCell id="4r2hvdrGXI0uw6loOx7I-6" value="Telefone" style="ellipse;whiteSpace=wrap;html=1;align=center;" parent="1" vertex="1">
          <mxGeometry y="220" width="100" height="40" as="geometry" />
        </mxCell>
        <mxCell id="4r2hvdrGXI0uw6loOx7I-15" style="edgeStyle=orthogonalEdgeStyle;rounded=0;orthogonalLoop=1;jettySize=auto;html=1;exitX=1;exitY=0.5;exitDx=0;exitDy=0;entryX=0;entryY=1;entryDx=0;entryDy=0;endArrow=none;endFill=0;" parent="1" source="4r2hvdrGXI0uw6loOx7I-7" target="4r2hvdrGXI0uw6loOx7I-1" edge="1">
          <mxGeometry relative="1" as="geometry" />
        </mxCell>
        <mxCell id="4r2hvdrGXI0uw6loOx7I-7" value="E-mail" style="ellipse;whiteSpace=wrap;html=1;align=center;" parent="1" vertex="1">
          <mxGeometry y="140" width="100" height="40" as="geometry" />
        </mxCell>
        <mxCell id="4r2hvdrGXI0uw6loOx7I-14" style="edgeStyle=orthogonalEdgeStyle;rounded=0;orthogonalLoop=1;jettySize=auto;html=1;exitX=1;exitY=0.5;exitDx=0;exitDy=0;entryX=0.25;entryY=1;entryDx=0;entryDy=0;endArrow=none;endFill=0;" parent="1" source="4r2hvdrGXI0uw6loOx7I-8" target="4r2hvdrGXI0uw6loOx7I-1" edge="1">
          <mxGeometry relative="1" as="geometry" />
        </mxCell>
        <mxCell id="4r2hvdrGXI0uw6loOx7I-8" value="Endereço" style="ellipse;whiteSpace=wrap;html=1;align=center;" parent="1" vertex="1">
          <mxGeometry y="180" width="100" height="40" as="geometry" />
        </mxCell>
        <mxCell id="4r2hvdrGXI0uw6loOx7I-52" style="edgeStyle=orthogonalEdgeStyle;rounded=0;orthogonalLoop=1;jettySize=auto;html=1;exitX=0.75;exitY=0;exitDx=0;exitDy=0;entryX=0;entryY=0.5;entryDx=0;entryDy=0;endArrow=none;endFill=0;" parent="1" source="4r2hvdrGXI0uw6loOx7I-17" target="4r2hvdrGXI0uw6loOx7I-51" edge="1">
          <mxGeometry relative="1" as="geometry" />
        </mxCell>
        <mxCell id="8edrNOFgO4Ib04jE-QbZ-33" style="edgeStyle=orthogonalEdgeStyle;rounded=0;orthogonalLoop=1;jettySize=auto;html=1;exitX=0.75;exitY=1;exitDx=0;exitDy=0;entryX=0.5;entryY=0;entryDx=0;entryDy=0;endArrow=none;endFill=0;" edge="1" parent="1" source="4r2hvdrGXI0uw6loOx7I-17" target="8edrNOFgO4Ib04jE-QbZ-29">
          <mxGeometry relative="1" as="geometry">
            <Array as="points">
              <mxPoint x="205" y="540" />
              <mxPoint x="-27" y="540" />
            </Array>
          </mxGeometry>
        </mxCell>
        <mxCell id="4r2hvdrGXI0uw6loOx7I-17" value="Pacientes" style="rounded=1;arcSize=10;whiteSpace=wrap;html=1;align=center;" parent="1" vertex="1">
          <mxGeometry x="130" y="370" width="100" height="40" as="geometry" />
        </mxCell>
        <mxCell id="4r2hvdrGXI0uw6loOx7I-18" style="edgeStyle=orthogonalEdgeStyle;rounded=0;orthogonalLoop=1;jettySize=auto;html=1;exitX=1;exitY=0.5;exitDx=0;exitDy=0;entryX=0.5;entryY=0;entryDx=0;entryDy=0;endArrow=none;endFill=0;" parent="1" source="4r2hvdrGXI0uw6loOx7I-19" target="4r2hvdrGXI0uw6loOx7I-17" edge="1">
          <mxGeometry relative="1" as="geometry" />
        </mxCell>
        <mxCell id="4r2hvdrGXI0uw6loOx7I-19" value="&lt;b&gt;Id Paciente&lt;/b&gt;" style="ellipse;whiteSpace=wrap;html=1;align=center;" parent="1" vertex="1">
          <mxGeometry y="290" width="100" height="40" as="geometry" />
        </mxCell>
        <mxCell id="4r2hvdrGXI0uw6loOx7I-20" style="edgeStyle=orthogonalEdgeStyle;rounded=0;orthogonalLoop=1;jettySize=auto;html=1;exitX=1;exitY=0.5;exitDx=0;exitDy=0;entryX=0.25;entryY=0;entryDx=0;entryDy=0;endArrow=none;endFill=0;" parent="1" source="4r2hvdrGXI0uw6loOx7I-21" target="4r2hvdrGXI0uw6loOx7I-17" edge="1">
          <mxGeometry relative="1" as="geometry" />
        </mxCell>
        <mxCell id="4r2hvdrGXI0uw6loOx7I-21" value="Nome" style="ellipse;whiteSpace=wrap;html=1;align=center;" parent="1" vertex="1">
          <mxGeometry y="330" width="100" height="40" as="geometry" />
        </mxCell>
        <mxCell id="4r2hvdrGXI0uw6loOx7I-22" style="edgeStyle=orthogonalEdgeStyle;rounded=0;orthogonalLoop=1;jettySize=auto;html=1;exitX=1;exitY=0.5;exitDx=0;exitDy=0;entryX=0;entryY=0.5;entryDx=0;entryDy=0;endArrow=none;endFill=0;" parent="1" source="4r2hvdrGXI0uw6loOx7I-23" target="4r2hvdrGXI0uw6loOx7I-17" edge="1">
          <mxGeometry relative="1" as="geometry" />
        </mxCell>
        <mxCell id="4r2hvdrGXI0uw6loOx7I-23" value="CPF" style="ellipse;whiteSpace=wrap;html=1;align=center;" parent="1" vertex="1">
          <mxGeometry y="370" width="100" height="40" as="geometry" />
        </mxCell>
        <mxCell id="4r2hvdrGXI0uw6loOx7I-24" style="edgeStyle=orthogonalEdgeStyle;rounded=0;orthogonalLoop=1;jettySize=auto;html=1;exitX=1;exitY=0.5;exitDx=0;exitDy=0;entryX=0.5;entryY=1;entryDx=0;entryDy=0;endArrow=none;endFill=0;" parent="1" source="4r2hvdrGXI0uw6loOx7I-25" target="4r2hvdrGXI0uw6loOx7I-17" edge="1">
          <mxGeometry relative="1" as="geometry" />
        </mxCell>
        <mxCell id="4r2hvdrGXI0uw6loOx7I-25" value="Telefone" style="ellipse;whiteSpace=wrap;html=1;align=center;" parent="1" vertex="1">
          <mxGeometry y="490" width="100" height="40" as="geometry" />
        </mxCell>
        <mxCell id="4r2hvdrGXI0uw6loOx7I-26" style="edgeStyle=orthogonalEdgeStyle;rounded=0;orthogonalLoop=1;jettySize=auto;html=1;exitX=1;exitY=0.5;exitDx=0;exitDy=0;entryX=0;entryY=1;entryDx=0;entryDy=0;endArrow=none;endFill=0;" parent="1" source="4r2hvdrGXI0uw6loOx7I-27" target="4r2hvdrGXI0uw6loOx7I-17" edge="1">
          <mxGeometry relative="1" as="geometry" />
        </mxCell>
        <mxCell id="4r2hvdrGXI0uw6loOx7I-27" value="E-mail" style="ellipse;whiteSpace=wrap;html=1;align=center;" parent="1" vertex="1">
          <mxGeometry y="410" width="100" height="40" as="geometry" />
        </mxCell>
        <mxCell id="4r2hvdrGXI0uw6loOx7I-28" style="edgeStyle=orthogonalEdgeStyle;rounded=0;orthogonalLoop=1;jettySize=auto;html=1;exitX=1;exitY=0.5;exitDx=0;exitDy=0;entryX=0.25;entryY=1;entryDx=0;entryDy=0;endArrow=none;endFill=0;" parent="1" source="4r2hvdrGXI0uw6loOx7I-29" target="4r2hvdrGXI0uw6loOx7I-17" edge="1">
          <mxGeometry relative="1" as="geometry" />
        </mxCell>
        <mxCell id="4r2hvdrGXI0uw6loOx7I-29" value="Endereço" style="ellipse;whiteSpace=wrap;html=1;align=center;" parent="1" vertex="1">
          <mxGeometry y="450" width="100" height="40" as="geometry" />
        </mxCell>
        <mxCell id="4r2hvdrGXI0uw6loOx7I-30" value="CIdade" style="rounded=1;arcSize=10;whiteSpace=wrap;html=1;align=center;" parent="1" vertex="1">
          <mxGeometry x="480" y="90" width="100" height="40" as="geometry" />
        </mxCell>
        <mxCell id="4r2hvdrGXI0uw6loOx7I-43" style="edgeStyle=orthogonalEdgeStyle;rounded=0;orthogonalLoop=1;jettySize=auto;html=1;exitX=0.5;exitY=1;exitDx=0;exitDy=0;entryX=0;entryY=0.5;entryDx=0;entryDy=0;endArrow=none;endFill=0;" parent="1" source="4r2hvdrGXI0uw6loOx7I-32" target="4r2hvdrGXI0uw6loOx7I-30" edge="1">
          <mxGeometry relative="1" as="geometry" />
        </mxCell>
        <mxCell id="4r2hvdrGXI0uw6loOx7I-32" value="&lt;b&gt;Id Cidade&lt;/b&gt;" style="ellipse;whiteSpace=wrap;html=1;align=center;" parent="1" vertex="1">
          <mxGeometry x="364" y="30" width="100" height="40" as="geometry" />
        </mxCell>
        <mxCell id="4r2hvdrGXI0uw6loOx7I-44" style="edgeStyle=orthogonalEdgeStyle;rounded=0;orthogonalLoop=1;jettySize=auto;html=1;exitX=0.5;exitY=1;exitDx=0;exitDy=0;entryX=0.4;entryY=-0.05;entryDx=0;entryDy=0;entryPerimeter=0;endArrow=none;endFill=0;" parent="1" source="4r2hvdrGXI0uw6loOx7I-34" target="4r2hvdrGXI0uw6loOx7I-30" edge="1">
          <mxGeometry relative="1" as="geometry" />
        </mxCell>
        <mxCell id="4r2hvdrGXI0uw6loOx7I-34" value="Nome" style="ellipse;whiteSpace=wrap;html=1;align=center;" parent="1" vertex="1">
          <mxGeometry x="470" y="30" width="100" height="40" as="geometry" />
        </mxCell>
        <mxCell id="4r2hvdrGXI0uw6loOx7I-45" style="edgeStyle=orthogonalEdgeStyle;rounded=0;orthogonalLoop=1;jettySize=auto;html=1;exitX=0.5;exitY=1;exitDx=0;exitDy=0;entryX=1;entryY=0.5;entryDx=0;entryDy=0;endArrow=none;endFill=0;" parent="1" source="4r2hvdrGXI0uw6loOx7I-36" target="4r2hvdrGXI0uw6loOx7I-30" edge="1">
          <mxGeometry relative="1" as="geometry" />
        </mxCell>
        <mxCell id="4r2hvdrGXI0uw6loOx7I-36" value="UF" style="ellipse;whiteSpace=wrap;html=1;align=center;" parent="1" vertex="1">
          <mxGeometry x="580" y="30" width="100" height="40" as="geometry" />
        </mxCell>
        <mxCell id="4r2hvdrGXI0uw6loOx7I-50" style="edgeStyle=orthogonalEdgeStyle;rounded=0;orthogonalLoop=1;jettySize=auto;html=1;exitX=1;exitY=0.5;exitDx=0;exitDy=0;entryX=0.5;entryY=1;entryDx=0;entryDy=0;endArrow=none;endFill=0;" parent="1" source="4r2hvdrGXI0uw6loOx7I-47" target="4r2hvdrGXI0uw6loOx7I-30" edge="1">
          <mxGeometry relative="1" as="geometry" />
        </mxCell>
        <mxCell id="4r2hvdrGXI0uw6loOx7I-47" value="" style="shape=rhombus;perimeter=rhombusPerimeter;whiteSpace=wrap;html=1;align=center;" parent="1" vertex="1">
          <mxGeometry x="300" y="130" width="86" height="50" as="geometry" />
        </mxCell>
        <mxCell id="4r2hvdrGXI0uw6loOx7I-53" style="edgeStyle=orthogonalEdgeStyle;rounded=0;orthogonalLoop=1;jettySize=auto;html=1;exitX=1;exitY=0.5;exitDx=0;exitDy=0;entryX=0.75;entryY=1;entryDx=0;entryDy=0;endArrow=none;endFill=0;" parent="1" source="4r2hvdrGXI0uw6loOx7I-51" target="4r2hvdrGXI0uw6loOx7I-30" edge="1">
          <mxGeometry relative="1" as="geometry" />
        </mxCell>
        <mxCell id="4r2hvdrGXI0uw6loOx7I-51" value="" style="shape=rhombus;perimeter=rhombusPerimeter;whiteSpace=wrap;html=1;align=center;" parent="1" vertex="1">
          <mxGeometry x="300" y="210" width="86" height="50" as="geometry" />
        </mxCell>
        <mxCell id="4r2hvdrGXI0uw6loOx7I-73" style="edgeStyle=orthogonalEdgeStyle;rounded=0;orthogonalLoop=1;jettySize=auto;html=1;exitX=0.5;exitY=1;exitDx=0;exitDy=0;entryX=0;entryY=0.5;entryDx=0;entryDy=0;endArrow=none;endFill=0;" parent="1" source="4r2hvdrGXI0uw6loOx7I-54" target="4r2hvdrGXI0uw6loOx7I-67" edge="1">
          <mxGeometry relative="1" as="geometry" />
        </mxCell>
        <mxCell id="4r2hvdrGXI0uw6loOx7I-74" style="edgeStyle=orthogonalEdgeStyle;rounded=0;orthogonalLoop=1;jettySize=auto;html=1;exitX=1;exitY=0.5;exitDx=0;exitDy=0;entryX=0;entryY=0.5;entryDx=0;entryDy=0;endArrow=none;endFill=0;" parent="1" source="4r2hvdrGXI0uw6loOx7I-54" target="4r2hvdrGXI0uw6loOx7I-61" edge="1">
          <mxGeometry relative="1" as="geometry">
            <Array as="points">
              <mxPoint x="540" y="360" />
            </Array>
          </mxGeometry>
        </mxCell>
        <mxCell id="8edrNOFgO4Ib04jE-QbZ-9" style="edgeStyle=orthogonalEdgeStyle;rounded=0;orthogonalLoop=1;jettySize=auto;html=1;exitX=0;exitY=0.5;exitDx=0;exitDy=0;entryX=0.5;entryY=0;entryDx=0;entryDy=0;endArrow=none;endFill=0;" edge="1" parent="1" source="4r2hvdrGXI0uw6loOx7I-54" target="8edrNOFgO4Ib04jE-QbZ-7">
          <mxGeometry relative="1" as="geometry" />
        </mxCell>
        <mxCell id="4r2hvdrGXI0uw6loOx7I-54" value="Medicamentos" style="rounded=1;arcSize=10;whiteSpace=wrap;html=1;align=center;" parent="1" vertex="1">
          <mxGeometry x="440" y="320" width="100" height="40" as="geometry" />
        </mxCell>
        <mxCell id="4r2hvdrGXI0uw6loOx7I-68" style="edgeStyle=orthogonalEdgeStyle;rounded=0;orthogonalLoop=1;jettySize=auto;html=1;exitX=0;exitY=0.5;exitDx=0;exitDy=0;entryX=0.5;entryY=0;entryDx=0;entryDy=0;endArrow=none;endFill=0;" parent="1" source="4r2hvdrGXI0uw6loOx7I-57" target="4r2hvdrGXI0uw6loOx7I-54" edge="1">
          <mxGeometry relative="1" as="geometry" />
        </mxCell>
        <mxCell id="4r2hvdrGXI0uw6loOx7I-57" value="&lt;b&gt;Id Medicamento&lt;/b&gt;" style="ellipse;whiteSpace=wrap;html=1;align=center;" parent="1" vertex="1">
          <mxGeometry x="580" y="260" width="100" height="40" as="geometry" />
        </mxCell>
        <mxCell id="4r2hvdrGXI0uw6loOx7I-76" style="edgeStyle=orthogonalEdgeStyle;rounded=0;orthogonalLoop=1;jettySize=auto;html=1;exitX=0;exitY=0.5;exitDx=0;exitDy=0;entryX=1;entryY=0.5;entryDx=0;entryDy=0;endArrow=none;endFill=0;" parent="1" source="4r2hvdrGXI0uw6loOx7I-59" target="4r2hvdrGXI0uw6loOx7I-54" edge="1">
          <mxGeometry relative="1" as="geometry" />
        </mxCell>
        <mxCell id="4r2hvdrGXI0uw6loOx7I-59" value="Nome Medicamento" style="ellipse;whiteSpace=wrap;html=1;align=center;" parent="1" vertex="1">
          <mxGeometry x="580" y="300" width="100" height="40" as="geometry" />
        </mxCell>
        <mxCell id="4r2hvdrGXI0uw6loOx7I-61" value="Tipo" style="ellipse;whiteSpace=wrap;html=1;align=center;" parent="1" vertex="1">
          <mxGeometry x="580" y="340" width="100" height="40" as="geometry" />
        </mxCell>
        <mxCell id="4r2hvdrGXI0uw6loOx7I-71" style="edgeStyle=orthogonalEdgeStyle;rounded=0;orthogonalLoop=1;jettySize=auto;html=1;exitX=0;exitY=0.5;exitDx=0;exitDy=0;entryX=0.75;entryY=1;entryDx=0;entryDy=0;endArrow=none;endFill=0;" parent="1" source="4r2hvdrGXI0uw6loOx7I-65" target="4r2hvdrGXI0uw6loOx7I-54" edge="1">
          <mxGeometry relative="1" as="geometry" />
        </mxCell>
        <mxCell id="4r2hvdrGXI0uw6loOx7I-65" value="Dosagem" style="ellipse;whiteSpace=wrap;html=1;align=center;" parent="1" vertex="1">
          <mxGeometry x="580" y="380" width="100" height="40" as="geometry" />
        </mxCell>
        <mxCell id="4r2hvdrGXI0uw6loOx7I-67" value="Descrição" style="ellipse;whiteSpace=wrap;html=1;align=center;" parent="1" vertex="1">
          <mxGeometry x="580" y="420" width="100" height="40" as="geometry" />
        </mxCell>
        <mxCell id="4r2hvdrGXI0uw6loOx7I-77" value="N" style="text;html=1;align=center;verticalAlign=middle;resizable=0;points=[];autosize=1;strokeColor=none;fillColor=none;" parent="1" vertex="1">
          <mxGeometry x="225" y="95" width="30" height="30" as="geometry" />
        </mxCell>
        <mxCell id="4r2hvdrGXI0uw6loOx7I-78" value="1" style="text;html=1;align=center;verticalAlign=middle;resizable=0;points=[];autosize=1;strokeColor=none;fillColor=none;" parent="1" vertex="1">
          <mxGeometry x="505" y="125" width="30" height="30" as="geometry" />
        </mxCell>
        <mxCell id="4r2hvdrGXI0uw6loOx7I-79" value="1" style="text;html=1;align=center;verticalAlign=middle;resizable=0;points=[];autosize=1;strokeColor=none;fillColor=none;" parent="1" vertex="1">
          <mxGeometry x="555" y="125" width="30" height="30" as="geometry" />
        </mxCell>
        <mxCell id="4r2hvdrGXI0uw6loOx7I-80" value="N" style="text;html=1;align=center;verticalAlign=middle;resizable=0;points=[];autosize=1;strokeColor=none;fillColor=none;" parent="1" vertex="1">
          <mxGeometry x="205" y="345" width="30" height="30" as="geometry" />
        </mxCell>
        <mxCell id="4r2hvdrGXI0uw6loOx7I-82" style="edgeStyle=orthogonalEdgeStyle;rounded=0;orthogonalLoop=1;jettySize=auto;html=1;exitX=1;exitY=0.5;exitDx=0;exitDy=0;entryX=0;entryY=0.5;entryDx=0;entryDy=0;endArrow=none;endFill=0;" parent="1" source="4r2hvdrGXI0uw6loOx7I-83" target="4r2hvdrGXI0uw6loOx7I-88" edge="1">
          <mxGeometry relative="1" as="geometry">
            <Array as="points">
              <mxPoint x="540" y="590" />
            </Array>
          </mxGeometry>
        </mxCell>
        <mxCell id="8edrNOFgO4Ib04jE-QbZ-13" style="edgeStyle=orthogonalEdgeStyle;rounded=0;orthogonalLoop=1;jettySize=auto;html=1;exitX=0.25;exitY=0;exitDx=0;exitDy=0;entryX=1;entryY=0.5;entryDx=0;entryDy=0;endArrow=none;endFill=0;" edge="1" parent="1" source="4r2hvdrGXI0uw6loOx7I-83" target="8edrNOFgO4Ib04jE-QbZ-12">
          <mxGeometry relative="1" as="geometry">
            <Array as="points">
              <mxPoint x="465" y="540" />
              <mxPoint x="420" y="540" />
              <mxPoint x="420" y="555" />
            </Array>
          </mxGeometry>
        </mxCell>
        <mxCell id="4r2hvdrGXI0uw6loOx7I-83" value="Exames" style="rounded=1;arcSize=10;whiteSpace=wrap;html=1;align=center;" parent="1" vertex="1">
          <mxGeometry x="440" y="550" width="100" height="40" as="geometry" />
        </mxCell>
        <mxCell id="4r2hvdrGXI0uw6loOx7I-84" style="edgeStyle=orthogonalEdgeStyle;rounded=0;orthogonalLoop=1;jettySize=auto;html=1;exitX=0;exitY=0.5;exitDx=0;exitDy=0;entryX=0.5;entryY=0;entryDx=0;entryDy=0;endArrow=none;endFill=0;" parent="1" source="4r2hvdrGXI0uw6loOx7I-85" target="4r2hvdrGXI0uw6loOx7I-83" edge="1">
          <mxGeometry relative="1" as="geometry" />
        </mxCell>
        <mxCell id="4r2hvdrGXI0uw6loOx7I-85" value="&lt;b&gt;Cod. Exame&lt;/b&gt;" style="ellipse;whiteSpace=wrap;html=1;align=center;" parent="1" vertex="1">
          <mxGeometry x="580" y="490" width="100" height="40" as="geometry" />
        </mxCell>
        <mxCell id="4r2hvdrGXI0uw6loOx7I-86" style="edgeStyle=orthogonalEdgeStyle;rounded=0;orthogonalLoop=1;jettySize=auto;html=1;exitX=0;exitY=0.5;exitDx=0;exitDy=0;entryX=1;entryY=0.5;entryDx=0;entryDy=0;endArrow=none;endFill=0;" parent="1" source="4r2hvdrGXI0uw6loOx7I-87" target="4r2hvdrGXI0uw6loOx7I-83" edge="1">
          <mxGeometry relative="1" as="geometry" />
        </mxCell>
        <mxCell id="4r2hvdrGXI0uw6loOx7I-87" value="Nome Exame" style="ellipse;whiteSpace=wrap;html=1;align=center;" parent="1" vertex="1">
          <mxGeometry x="580" y="530" width="100" height="40" as="geometry" />
        </mxCell>
        <mxCell id="4r2hvdrGXI0uw6loOx7I-88" value="Observação" style="ellipse;whiteSpace=wrap;html=1;align=center;" parent="1" vertex="1">
          <mxGeometry x="580" y="570" width="100" height="40" as="geometry" />
        </mxCell>
        <mxCell id="4r2hvdrGXI0uw6loOx7I-89" style="edgeStyle=orthogonalEdgeStyle;rounded=0;orthogonalLoop=1;jettySize=auto;html=1;exitX=0;exitY=0.5;exitDx=0;exitDy=0;entryX=0.75;entryY=1;entryDx=0;entryDy=0;endArrow=none;endFill=0;" parent="1" source="4r2hvdrGXI0uw6loOx7I-90" target="4r2hvdrGXI0uw6loOx7I-83" edge="1">
          <mxGeometry relative="1" as="geometry" />
        </mxCell>
        <mxCell id="4r2hvdrGXI0uw6loOx7I-90" value="Resultado" style="ellipse;whiteSpace=wrap;html=1;align=center;" parent="1" vertex="1">
          <mxGeometry x="580" y="610" width="100" height="40" as="geometry" />
        </mxCell>
        <mxCell id="4r2hvdrGXI0uw6loOx7I-101" style="edgeStyle=orthogonalEdgeStyle;rounded=0;orthogonalLoop=1;jettySize=auto;html=1;exitX=0.75;exitY=1;exitDx=0;exitDy=0;entryX=0;entryY=0;entryDx=0;entryDy=0;endArrow=none;endFill=0;" parent="1" source="4r2hvdrGXI0uw6loOx7I-93" target="4r2hvdrGXI0uw6loOx7I-97" edge="1">
          <mxGeometry relative="1" as="geometry" />
        </mxCell>
        <mxCell id="4r2hvdrGXI0uw6loOx7I-102" style="edgeStyle=orthogonalEdgeStyle;rounded=0;orthogonalLoop=1;jettySize=auto;html=1;exitX=0.25;exitY=1;exitDx=0;exitDy=0;entryX=0.76;entryY=0.075;entryDx=0;entryDy=0;entryPerimeter=0;endArrow=none;endFill=0;" parent="1" source="4r2hvdrGXI0uw6loOx7I-93" target="4r2hvdrGXI0uw6loOx7I-95" edge="1">
          <mxGeometry relative="1" as="geometry" />
        </mxCell>
        <mxCell id="8edrNOFgO4Ib04jE-QbZ-3" style="edgeStyle=orthogonalEdgeStyle;rounded=0;orthogonalLoop=1;jettySize=auto;html=1;exitX=0;exitY=0.25;exitDx=0;exitDy=0;entryX=0.5;entryY=0;entryDx=0;entryDy=0;endArrow=none;endFill=0;" edge="1" parent="1" source="4r2hvdrGXI0uw6loOx7I-93" target="8edrNOFgO4Ib04jE-QbZ-1">
          <mxGeometry relative="1" as="geometry" />
        </mxCell>
        <mxCell id="8edrNOFgO4Ib04jE-QbZ-5" style="edgeStyle=orthogonalEdgeStyle;rounded=0;orthogonalLoop=1;jettySize=auto;html=1;exitX=1;exitY=0.75;exitDx=0;exitDy=0;entryX=0.5;entryY=0;entryDx=0;entryDy=0;endArrow=none;endFill=0;" edge="1" parent="1" source="4r2hvdrGXI0uw6loOx7I-93" target="8edrNOFgO4Ib04jE-QbZ-2">
          <mxGeometry relative="1" as="geometry" />
        </mxCell>
        <mxCell id="4r2hvdrGXI0uw6loOx7I-93" value="Consultas" style="rounded=1;arcSize=10;whiteSpace=wrap;html=1;align=center;" parent="1" vertex="1">
          <mxGeometry x="190" y="560" width="100" height="40" as="geometry" />
        </mxCell>
        <mxCell id="4r2hvdrGXI0uw6loOx7I-95" value="Data" style="ellipse;whiteSpace=wrap;html=1;align=center;" parent="1" vertex="1">
          <mxGeometry x="140" y="630" width="100" height="40" as="geometry" />
        </mxCell>
        <mxCell id="4r2hvdrGXI0uw6loOx7I-97" value="Tipo" style="ellipse;whiteSpace=wrap;html=1;align=center;" parent="1" vertex="1">
          <mxGeometry x="240" y="630" width="100" height="40" as="geometry" />
        </mxCell>
        <mxCell id="4r2hvdrGXI0uw6loOx7I-108" style="edgeStyle=orthogonalEdgeStyle;rounded=0;orthogonalLoop=1;jettySize=auto;html=1;exitX=0.5;exitY=1;exitDx=0;exitDy=0;entryX=0.5;entryY=0;entryDx=0;entryDy=0;endArrow=none;endFill=0;" parent="1" source="4r2hvdrGXI0uw6loOx7I-106" target="4r2hvdrGXI0uw6loOx7I-93" edge="1">
          <mxGeometry relative="1" as="geometry" />
        </mxCell>
        <mxCell id="4r2hvdrGXI0uw6loOx7I-106" value="" style="shape=rhombus;perimeter=rhombusPerimeter;whiteSpace=wrap;html=1;align=center;" parent="1" vertex="1">
          <mxGeometry x="255" y="415" width="86" height="50" as="geometry" />
        </mxCell>
        <mxCell id="4r2hvdrGXI0uw6loOx7I-109" value="1" style="text;html=1;align=center;verticalAlign=middle;resizable=0;points=[];autosize=1;strokeColor=none;fillColor=none;" parent="1" vertex="1">
          <mxGeometry x="195" y="135" width="30" height="30" as="geometry" />
        </mxCell>
        <mxCell id="4r2hvdrGXI0uw6loOx7I-110" value="N" style="text;html=1;align=center;verticalAlign=middle;resizable=0;points=[];autosize=1;strokeColor=none;fillColor=none;" parent="1" vertex="1">
          <mxGeometry x="235" y="535" width="30" height="30" as="geometry" />
        </mxCell>
        <mxCell id="4r2hvdrGXI0uw6loOx7I-113" value="1" style="text;html=1;align=center;verticalAlign=middle;resizable=0;points=[];autosize=1;strokeColor=none;fillColor=none;" parent="1" vertex="1">
          <mxGeometry x="283" y="530" width="30" height="30" as="geometry" />
        </mxCell>
        <mxCell id="4r2hvdrGXI0uw6loOx7I-114" value="N" style="text;html=1;align=center;verticalAlign=middle;resizable=0;points=[];autosize=1;strokeColor=none;fillColor=none;" parent="1" vertex="1">
          <mxGeometry x="460" y="520" width="30" height="30" as="geometry" />
        </mxCell>
        <mxCell id="4r2hvdrGXI0uw6loOx7I-116" value="1" style="text;html=1;align=center;verticalAlign=middle;resizable=0;points=[];autosize=1;strokeColor=none;fillColor=none;" parent="1" vertex="1">
          <mxGeometry x="255" y="535" width="30" height="30" as="geometry" />
        </mxCell>
        <mxCell id="4r2hvdrGXI0uw6loOx7I-117" value="N" style="text;html=1;align=center;verticalAlign=middle;resizable=0;points=[];autosize=1;strokeColor=none;fillColor=none;" parent="1" vertex="1">
          <mxGeometry x="410" y="315" width="30" height="30" as="geometry" />
        </mxCell>
        <mxCell id="8edrNOFgO4Ib04jE-QbZ-1" value="&lt;b&gt;Codigo&lt;/b&gt;" style="ellipse;whiteSpace=wrap;html=1;align=center;" vertex="1" parent="1">
          <mxGeometry x="40" y="630" width="100" height="40" as="geometry" />
        </mxCell>
        <mxCell id="8edrNOFgO4Ib04jE-QbZ-2" value="Observação" style="ellipse;whiteSpace=wrap;html=1;align=center;" vertex="1" parent="1">
          <mxGeometry x="340" y="630" width="100" height="40" as="geometry" />
        </mxCell>
        <mxCell id="8edrNOFgO4Ib04jE-QbZ-10" style="edgeStyle=orthogonalEdgeStyle;rounded=0;orthogonalLoop=1;jettySize=auto;html=1;exitX=0.5;exitY=1;exitDx=0;exitDy=0;endArrow=none;endFill=0;entryX=0.75;entryY=0;entryDx=0;entryDy=0;" edge="1" parent="1" source="8edrNOFgO4Ib04jE-QbZ-7" target="4r2hvdrGXI0uw6loOx7I-93">
          <mxGeometry relative="1" as="geometry">
            <mxPoint x="340" y="530" as="targetPoint" />
            <Array as="points">
              <mxPoint x="407" y="520" />
              <mxPoint x="265" y="520" />
            </Array>
          </mxGeometry>
        </mxCell>
        <mxCell id="8edrNOFgO4Ib04jE-QbZ-7" value="" style="shape=rhombus;perimeter=rhombusPerimeter;whiteSpace=wrap;html=1;align=center;" vertex="1" parent="1">
          <mxGeometry x="364" y="400" width="86" height="50" as="geometry" />
        </mxCell>
        <mxCell id="8edrNOFgO4Ib04jE-QbZ-14" style="edgeStyle=orthogonalEdgeStyle;rounded=0;orthogonalLoop=1;jettySize=auto;html=1;exitX=0;exitY=0.5;exitDx=0;exitDy=0;endArrow=none;endFill=0;entryX=1;entryY=0;entryDx=0;entryDy=0;" edge="1" parent="1" source="8edrNOFgO4Ib04jE-QbZ-12" target="4r2hvdrGXI0uw6loOx7I-93">
          <mxGeometry relative="1" as="geometry">
            <mxPoint x="310" y="530" as="targetPoint" />
          </mxGeometry>
        </mxCell>
        <mxCell id="8edrNOFgO4Ib04jE-QbZ-12" value="" style="shape=rhombus;perimeter=rhombusPerimeter;whiteSpace=wrap;html=1;align=center;" vertex="1" parent="1">
          <mxGeometry x="315" y="530" width="86" height="50" as="geometry" />
        </mxCell>
        <mxCell id="8edrNOFgO4Ib04jE-QbZ-15" value="Plano de Saude" style="rounded=1;arcSize=10;whiteSpace=wrap;html=1;align=center;" vertex="1" parent="1">
          <mxGeometry x="-50" y="750" width="100" height="40" as="geometry" />
        </mxCell>
        <mxCell id="8edrNOFgO4Ib04jE-QbZ-16" style="edgeStyle=orthogonalEdgeStyle;rounded=0;orthogonalLoop=1;jettySize=auto;html=1;exitX=1;exitY=0.5;exitDx=0;exitDy=0;entryX=0.5;entryY=0;entryDx=0;entryDy=0;endArrow=none;endFill=0;" edge="1" parent="1" source="8edrNOFgO4Ib04jE-QbZ-17" target="8edrNOFgO4Ib04jE-QbZ-15">
          <mxGeometry relative="1" as="geometry" />
        </mxCell>
        <mxCell id="8edrNOFgO4Ib04jE-QbZ-17" value="&lt;b&gt;id Plano&lt;/b&gt;" style="ellipse;whiteSpace=wrap;html=1;align=center;" vertex="1" parent="1">
          <mxGeometry x="-180" y="670" width="100" height="40" as="geometry" />
        </mxCell>
        <mxCell id="8edrNOFgO4Ib04jE-QbZ-18" style="edgeStyle=orthogonalEdgeStyle;rounded=0;orthogonalLoop=1;jettySize=auto;html=1;exitX=1;exitY=0.5;exitDx=0;exitDy=0;entryX=0.25;entryY=0;entryDx=0;entryDy=0;endArrow=none;endFill=0;" edge="1" parent="1" source="8edrNOFgO4Ib04jE-QbZ-19" target="8edrNOFgO4Ib04jE-QbZ-15">
          <mxGeometry relative="1" as="geometry" />
        </mxCell>
        <mxCell id="8edrNOFgO4Ib04jE-QbZ-19" value="Nome do Pllano" style="ellipse;whiteSpace=wrap;html=1;align=center;" vertex="1" parent="1">
          <mxGeometry x="-180" y="710" width="100" height="40" as="geometry" />
        </mxCell>
        <mxCell id="8edrNOFgO4Ib04jE-QbZ-20" style="edgeStyle=orthogonalEdgeStyle;rounded=0;orthogonalLoop=1;jettySize=auto;html=1;exitX=1;exitY=0.5;exitDx=0;exitDy=0;entryX=0;entryY=0.5;entryDx=0;entryDy=0;endArrow=none;endFill=0;" edge="1" parent="1" source="8edrNOFgO4Ib04jE-QbZ-21" target="8edrNOFgO4Ib04jE-QbZ-15">
          <mxGeometry relative="1" as="geometry" />
        </mxCell>
        <mxCell id="8edrNOFgO4Ib04jE-QbZ-21" value="Código ANS" style="ellipse;whiteSpace=wrap;html=1;align=center;" vertex="1" parent="1">
          <mxGeometry x="-180" y="750" width="100" height="40" as="geometry" />
        </mxCell>
        <mxCell id="8edrNOFgO4Ib04jE-QbZ-22" style="edgeStyle=orthogonalEdgeStyle;rounded=0;orthogonalLoop=1;jettySize=auto;html=1;exitX=1;exitY=0.5;exitDx=0;exitDy=0;entryX=0.5;entryY=1;entryDx=0;entryDy=0;endArrow=none;endFill=0;" edge="1" parent="1" source="8edrNOFgO4Ib04jE-QbZ-23" target="8edrNOFgO4Ib04jE-QbZ-15">
          <mxGeometry relative="1" as="geometry" />
        </mxCell>
        <mxCell id="8edrNOFgO4Ib04jE-QbZ-23" value="E-mail" style="ellipse;whiteSpace=wrap;html=1;align=center;" vertex="1" parent="1">
          <mxGeometry x="-180" y="870" width="100" height="40" as="geometry" />
        </mxCell>
        <mxCell id="8edrNOFgO4Ib04jE-QbZ-24" style="edgeStyle=orthogonalEdgeStyle;rounded=0;orthogonalLoop=1;jettySize=auto;html=1;exitX=1;exitY=0.5;exitDx=0;exitDy=0;entryX=0;entryY=1;entryDx=0;entryDy=0;endArrow=none;endFill=0;" edge="1" parent="1" source="8edrNOFgO4Ib04jE-QbZ-25" target="8edrNOFgO4Ib04jE-QbZ-15">
          <mxGeometry relative="1" as="geometry" />
        </mxCell>
        <mxCell id="8edrNOFgO4Ib04jE-QbZ-25" value="Endereço" style="ellipse;whiteSpace=wrap;html=1;align=center;" vertex="1" parent="1">
          <mxGeometry x="-180" y="790" width="100" height="40" as="geometry" />
        </mxCell>
        <mxCell id="8edrNOFgO4Ib04jE-QbZ-26" style="edgeStyle=orthogonalEdgeStyle;rounded=0;orthogonalLoop=1;jettySize=auto;html=1;exitX=1;exitY=0.5;exitDx=0;exitDy=0;entryX=0.25;entryY=1;entryDx=0;entryDy=0;endArrow=none;endFill=0;" edge="1" parent="1" source="8edrNOFgO4Ib04jE-QbZ-27" target="8edrNOFgO4Ib04jE-QbZ-15">
          <mxGeometry relative="1" as="geometry" />
        </mxCell>
        <mxCell id="8edrNOFgO4Ib04jE-QbZ-27" value="Telefone" style="ellipse;whiteSpace=wrap;html=1;align=center;" vertex="1" parent="1">
          <mxGeometry x="-180" y="830" width="100" height="40" as="geometry" />
        </mxCell>
        <mxCell id="8edrNOFgO4Ib04jE-QbZ-28" value="N" style="text;html=1;align=center;verticalAlign=middle;resizable=0;points=[];autosize=1;strokeColor=none;fillColor=none;" vertex="1" parent="1">
          <mxGeometry x="50" y="770" width="30" height="30" as="geometry" />
        </mxCell>
        <mxCell id="8edrNOFgO4Ib04jE-QbZ-34" style="edgeStyle=orthogonalEdgeStyle;rounded=0;orthogonalLoop=1;jettySize=auto;html=1;exitX=0.5;exitY=1;exitDx=0;exitDy=0;entryX=1;entryY=0.5;entryDx=0;entryDy=0;endArrow=none;endFill=0;" edge="1" parent="1" source="8edrNOFgO4Ib04jE-QbZ-29" target="8edrNOFgO4Ib04jE-QbZ-15">
          <mxGeometry relative="1" as="geometry">
            <Array as="points">
              <mxPoint x="-27" y="680" />
              <mxPoint x="70" y="680" />
              <mxPoint x="70" y="770" />
            </Array>
          </mxGeometry>
        </mxCell>
        <mxCell id="8edrNOFgO4Ib04jE-QbZ-29" value="" style="shape=rhombus;perimeter=rhombusPerimeter;whiteSpace=wrap;html=1;align=center;" vertex="1" parent="1">
          <mxGeometry x="-70" y="565" width="86" height="50" as="geometry" />
        </mxCell>
        <mxCell id="8edrNOFgO4Ib04jE-QbZ-35" value="1" style="text;html=1;align=center;verticalAlign=middle;resizable=0;points=[];autosize=1;strokeColor=none;fillColor=none;" vertex="1" parent="1">
          <mxGeometry x="205" y="405" width="30" height="30" as="geometry" />
        </mxCell>
      </root>
    </mxGraphModel>
  </diagram>
</mxfile>
